<svg xmlns="http://www.w3.org/2000/svg" viewBox="0 0 334 348" fill="#FFFFFF" role="img" aria-label="aisaty">
<title>aisaty</title>
<g transform="translate(0.000000,348.000000) scale(0.100000,-0.100000)">
<path d="M1793 3298 c-50 -90 -198 -356 -328 -593 -1006 -1824 -1449 -2639
-1443 -2656 2 -4 48 45 103 109 124 143 367 390 500 507 136 119 375 297 516
384 l115 71 96 172 c324 586 533 951 545 955 5 2 96 -153 203 -343 107 -191
203 -359 212 -375 l17 -27 93 24 c106 27 409 74 482 74 42 0 47 2 41 17 -6 16
-187 336 -422 743 -49 85 -210 368 -358 628 -147 259 -271 472 -274 472 -4 0
-48 -73 -98 -162z"/>
<path d="M3105 1433 c-151 -12 -358 -37 -460 -54 -433 -73 -879 -223 -1212
-410 -285 -159 -522 -340 -755 -576 -115 -116 -285 -312 -309 -355 -9 -17 14
-18 429 -18 l438 0 57 82 c78 116 169 224 305 362 398 404 950 727 1592 932
l135 43 -90 -1 c-49 -1 -108 -3 -130 -5z"/>
</g>
</svg>
